<svg xmlns="http://www.w3.org/2000/svg" viewBox="0 0 100 100"><path d="M50 2.248c-20.046 0-36.354 16.309-36.355 36.355 0 4.068.667 8.062 1.982 11.873 6.04 17.401 16.431 33.138 30.017 45.479A6.139 6.139 0 0 0 50 97.752a6.102 6.102 0 0 0 4.322-1.766c13.617-12.37 24.009-28.108 30.051-45.513a36.33 36.33 0 0 0 1.982-11.871C86.355 18.557 70.047 2.248 50 2.248zm0 63.861c-15.241 0-27.64-12.397-27.64-27.637S34.759 10.833 50 10.833c15.24 0 27.639 12.397 27.639 27.638 0 15.241-12.399 27.638-27.639 27.638z" fill="#d39f30"/><g fill="#d39f30"><path d="M61.362 23.837a3.123 3.123 0 0 0-3.112-3h-16.5a3.122 3.122 0 0 0-3.112 3c-1.611.124-2.888 1.459-2.888 3.101a3.129 3.129 0 0 0 3.125 3.125h.487l1.64 25.107c.035.525.471.935.998.935h16a1 1 0 0 0 .998-.935l1.641-25.107h.486a3.129 3.129 0 0 0 3.125-3.125c0-1.641-1.277-2.977-2.888-3.101zm-19.612-.999h16.5c.569 0 1.042.426 1.115.976h-18.73c.073-.55.545-.976 1.115-.976zm15.313 31.267H42.937l-1.571-24.042h17.268l-1.571 24.042zm4.062-26.042h-22.25c-.62 0-1.125-.505-1.125-1.125s.505-1.125 1.125-1.125h22.25c.62 0 1.125.505 1.125 1.125s-.505 1.125-1.125 1.125z"/><path d="M50 48.209c3.377 0 6.125-2.748 6.125-6.125S53.377 35.959 50 35.959s-6.125 2.748-6.125 6.125 2.748 6.125 6.125 6.125zm0-10.25c2.274 0 4.125 1.851 4.125 4.125S52.274 46.209 50 46.209s-4.125-1.851-4.125-4.125 1.851-4.125 4.125-4.125z"/></g></svg>